<svg width="400" height="300" viewBox="0 0 400 300" fill="none" xmlns="http://www.w3.org/2000/svg">
  <rect width="400" height="300" fill="#1f2937"/>
  <rect x="20" y="20" width="360" height="260" rx="8" fill="#374151" stroke="#4b5563" stroke-width="2"/>
  
  <!-- Header -->
  <rect x="40" y="40" width="320" height="40" rx="4" fill="#3b82f6"/>
  <text x="200" y="65" text-anchor="middle" fill="white" font-family="Arial, sans-serif" font-size="16" font-weight="bold">PortfolioHub</text>
  
  <!-- Navigation -->
  <rect x="40" y="100" width="60" height="20" rx="2" fill="#6b7280"/>
  <rect x="110" y="100" width="80" height="20" rx="2" fill="#6b7280"/>
  <rect x="200" y="100" width="80" height="20" rx="2" fill="#6b7280"/>
  <rect x="290" y="100" width="70" height="20" rx="2" fill="#6b7280"/>
  
  <!-- Main Content Area -->
  <rect x="40" y="140" width="160" height="120" rx="4" fill="#1f2937" stroke="#4b5563" stroke-width="1"/>
  <text x="120" y="160" text-anchor="middle" fill="#9ca3af" font-family="Arial, sans-serif" font-size="12">Portfolio Showcase</text>
  
  <!-- Portfolio Cards -->
  <rect x="50" y="170" width="140" height="20" rx="2" fill="#374151"/>
  <rect x="50" y="195" width="120" height="20" rx="2" fill="#374151"/>
  <rect x="50" y="220" width="100" height="20" rx="2" fill="#374151"/>
  
  <!-- Side Panel -->
  <rect x="220" y="140" width="140" height="120" rx="4" fill="#1f2937" stroke="#4b5563" stroke-width="1"/>
  <text x="290" y="160" text-anchor="middle" fill="#9ca3af" font-family="Arial, sans-serif" font-size="12">Connect & Collaborate</text>
  
  <!-- Features -->
  <circle cx="240" cy="180" r="4" fill="#3b82f6"/>
  <text x="250" y="185" fill="#d1d5db" font-family="Arial, sans-serif" font-size="10">Browse Portfolios</text>
  
  <circle cx="240" cy="200" r="4" fill="#3b82f6"/>
  <text x="250" y="205" fill="#d1d5db" font-family="Arial, sans-serif" font-size="10">Create Portfolio</text>
  
  <circle cx="240" cy="220" r="4" fill="#3b82f6"/>
  <text x="250" y="225" fill="#d1d5db" font-family="Arial, sans-serif" font-size="10">Collaborations</text>
  
  <!-- Footer -->
  <rect x="40" y="280" width="320" height="20" rx="2" fill="#374151"/>
  <text x="200" y="292" text-anchor="middle" fill="#9ca3af" font-family="Arial, sans-serif" font-size="10">© 2025 PortfolioHub. All rights reserved.</text>
</svg>
